<svg xmlns="http://www.w3.org/2000/svg" width="1024" height="1024"><path fill="#e9c251" fill-rule="evenodd" d="M190.25 360.742c3.713.192 9.787.192 13.5 0 3.713-.193.675-.35-6.75-.35s-10.463.157-6.75.35m-81.265 34.008L96.5 407.5l12.75-12.485C121.093 383.418 122.453 382 121.735 382c-.146 0-5.883 5.738-12.75 12.75m340.765 1.982c2.337.211 6.163.211 8.5 0 2.337-.21.425-.383-4.25-.383s-6.587.173-4.25.383m136.5-.004c2.063.216 5.438.216 7.5 0 2.063-.215.375-.392-3.75-.392s-5.812.177-3.75.392m309 0c2.063.216 5.438.216 7.5 0 2.063-.215.375-.392-3.75-.392s-5.812.177-3.75.392M500.242 455.25l.241 58.25.267-57.714.266-57.714 9.742-.327 9.742-.326-10.25-.21L500 397l.242 58.25m136.226-.75c0 31.9.127 45.095.281 29.321.155-15.773.155-41.873.001-58-.155-16.126-.282-3.221-.282 28.679m10.834-56.754c5.391.18 13.941.179 19-.002 5.059-.181.648-.328-9.802-.327-10.45.001-14.589.149-9.198.329m84.175.291c-.373.603-.407 1.366-.077 1.696.33.33.6.075.6-.566 0-1.516 24.592-1.654 25.342-.142.279.564.392.451.251-.25-.339-1.686-25.098-2.386-26.116-.738m70.825-.291c5.391.18 13.941.179 19-.002 5.059-.181.648-.328-9.802-.327-10.45.001-14.589.149-9.198.329m-650.183 54.596-42.381 42.428.695 4.635c.476 3.174 1.069 4.414 1.881 3.935.652-.384 9.18-6.757 18.951-14.163l17.765-13.465 5.043 4.252c2.774 2.339 5.193 4.092 5.376 3.895.436-.47 6.016-8.698 23.497-34.645 7.887-11.707 14.646-21.157 15.02-21 .374.157 10.539 11.199 22.588 24.536 12.05 13.337 22.142 24.237 22.427 24.221.286-.017 2.143-2.272 4.128-5.011l3.609-4.982 13.806 16.261c7.593 8.944 14.59 17.106 15.548 18.14 1.673 1.805 1.769 1.618 2.448-4.722l.707-6.6-11.621-15.778c-6.391-8.679-12.68-17.105-13.976-18.726l-2.357-2.948-6.761 4.239c-3.718 2.332-7.066 4.108-7.438 3.948-.373-.161-8.079-8.612-17.126-18.781-9.046-10.168-19.373-21.55-22.948-25.293l-6.5-6.805-42.381 42.429M655.413 432.5c.001 9.9.151 13.815.333 8.699.182-5.115.181-13.215-.002-18-.183-4.784-.332-.599-.331 9.301M485.45 456c0 18.975.134 26.738.298 17.25.165-9.488.165-25.012 0-34.5-.164-9.488-.298-1.725-.298 17.25m366.998-1c0 18.425.135 25.962.3 16.75.165-9.212.165-24.288 0-33.5s-.3-1.675-.3 16.75m-274.003 0c0 17.325.137 24.413.303 15.75.167-8.663.167-22.837 0-31.5-.166-8.663-.303-1.575-.303 15.75m331 1c0 17.325.137 24.413.303 15.75.167-8.663.167-22.837 0-31.5-.166-8.663-.303-1.575-.303 15.75m-232.117-23.5c.005 3.85.185 5.302.402 3.228.216-2.075.213-5.225-.008-7-.221-1.776-.398-.078-.394 3.772M833.441 455c0 15.675.138 22.087.307 14.25.169-7.838.169-20.663 0-28.5-.169-7.838-.307-1.425-.307 14.25m-178.012 34.5c0 12.65.144 17.687.318 11.194.175-6.494.174-16.844-.001-23-.175-6.157-.318-.844-.317 11.806m82.321-.76c3.438.196 9.063.196 12.5 0 3.438-.195.625-.355-6.25-.355s-9.687.16-6.25.355m76.5 6.988c2.063.216 5.438.216 7.5 0 2.063-.215.375-.392-3.75-.392s-5.812.177-3.75.392m-54.367 17.559c.435.433 5.477.655 11.204.494l10.413-.292-11.204-.495c-6.162-.272-10.848-.14-10.413.293m-245.575.461c7.045.172 18.295.171 25-.001 6.706-.173.942-.314-12.808-.313-13.75 0-19.236.142-12.192.314m126.442-.011c2.888.202 7.612.202 10.5 0s.525-.367-5.25-.367-8.138.165-5.25.367m42.537.003c3.182.199 8.132.197 11-.004 2.867-.201.263-.364-5.787-.362-6.05.002-8.396.167-5.213.366m30.497-.002c2.905.203 7.405.201 10-.004 2.594-.206.216-.371-5.284-.369-5.5.003-7.622.171-4.716.373m86.466.008c5.362.179 14.138.179 19.5 0 5.362-.18.975-.327-9.75-.327s-15.112.147-9.75.327m-632.055 32.956c-19.776 9.451-24.062 11.853-23 12.886 2.583 2.514 16.447 9.284 23.305 11.381 10.042 3.07 32.183 4.776 42.494 3.273 18.996-2.769 41.045-16.207 54.322-33.111l4.817-6.131-38.817.043-38.816.044-24.305 11.615m357.26-5.247c-1.897 1.896-2.455 3.503-2.455 7.065 0 2.536.489 5.524 1.086 6.64.872 1.63.688 2.453-.934 4.184-4.895 5.227-5.109 13.972-.43 17.652 3.151 2.478 9.895 2.661 13.184.357 2.182-1.528 2.416-1.528 3.272 0 .613 1.096 2.244 1.647 4.872 1.647 2.172 0 3.95-.262 3.95-.582 0-.32-1.583-2.513-3.518-4.875l-3.518-4.293 2.018-4.708c2.642-6.163 2.566-7.542-.415-7.542-1.56 0-2.662.722-3.072 2.015-.351 1.108-1.015 1.782-1.474 1.498-.459-.284-.599.385-.311 1.486.75 2.868-.238 2.472-2.798-1.122-2.077-2.917-2.108-3.188-.474-4.102 2.562-1.434 4.64-7.133 3.918-10.743-.725-3.629-4.615-7.032-8.036-7.032-1.326 0-3.515 1.105-4.865 2.455m106.045-1.778c-1.1.291-2.834 1.269-3.852 2.174-3.775 3.351-4.648 6.709-4.641 17.849.005 8.997.33 11.291 1.943 13.738 1.065 1.615 1.713 3.298 1.441 3.738-.272.441.158.551.956.244.798-.306 1.748-.076 2.111.512 1.105 1.788 11.751 1.259 14.175-.704 3.695-2.993 4.367-5.705 4.367-17.615 0-12.24-.862-15.637-4.584-18.076-2.557-1.675-8.886-2.663-11.916-1.86m30.5 1.075c-5.814 2.904-7.159 6.88-6.794 20.084l.314 11.336 3.725 3.414c3.156 2.892 4.458 3.414 8.518 3.414 2.724 0 5.754-.674 7.02-1.561 2.63-1.841 5.217-6.498 5.217-9.389 0-1.719-.635-2.05-3.934-2.05-3.547 0-3.964.27-4.25 2.75-.286 2.489-.696 2.75-4.316 2.75h-4l-.284-11.357c-.302-12.08.312-14.143 4.206-14.143 2.817 0 4.578 1.809 4.578 4.7 0 1.962.514 2.3 3.5 2.3 3.288 0 3.5-.198 3.5-3.277 0-3.96-2.122-7.217-6.011-9.229-3.777-1.953-6.701-1.884-10.989.258m-314.411 2.325c-3.37 4.005-3.515 9.737-.339 13.423 1.238 1.436 4.5 3.826 7.25 5.31 4.532 2.445 5 3.025 5 6.194 0 3.218-.239 3.496-3 3.496-2.152 0-3.279-.636-3.987-2.25-.734-1.672-1.826-2.25-4.25-2.25-2.847 0-3.263.331-3.263 2.6 0 1.624 1.277 3.877 3.4 6 2.897 2.897 4.091 3.4 8.077 3.4 3.836 0 5.202-.526 7.6-2.923 2.446-2.446 2.923-3.734 2.923-7.889 0-5.995-1.62-8.279-8.505-11.998-4.526-2.445-4.995-3.026-4.995-6.194 0-2.86.408-3.554 2.24-3.814 1.607-.229 2.571.407 3.411 2.25.916 2.011 1.894 2.568 4.51 2.568 3.737 0 3.95-.603 1.924-5.452-1.789-4.28-4.173-5.548-10.43-5.548-4.33 0-5.314.4-7.566 3.077M375 555.05c0 16.704.815 19.769 5.967 22.433 6.277 3.246 14.153.867 16.612-5.017 1.007-2.411 1.421-7.637 1.421-17.934V540h-7.949l-.276 15.75-.275 15.75-2.81.322c-5.269.604-5.69-.651-5.69-16.944V540h-7v15.05m32 4.45V579h7v-13h3.865c7.702 0 11.233-5.521 10.103-15.792-.891-8.095-3.691-10.208-13.524-10.208H407v19.5m29 0V579h7v-13h3.944c6.288 0 9.319-3.293 10.048-10.915 1.089-11.387-2.273-15.085-13.715-15.085H436v19.5m28 0V579h20v-7h-13.145l.155-13.25c.24-20.368.543-18.75-3.51-18.75H464v19.5m19-18.703c0 .438 1.8 6.155 4 12.703 3.106 9.247 4 13.425 4 18.703V579h8v-7.25c0-5.813.793-9.605 4-19.126 2.2-6.531 4-12.071 4-12.31 0-.239-1.687-.295-3.75-.124-3.739.309-3.756.33-5.79 7.517-1.956 6.908-3.46 10.09-3.46 7.317 0-.719-.919-4.394-2.042-8.166-2.014-6.761-2.091-6.858-5.5-6.858-1.902 0-3.458.359-3.458.797m81 18.703V579h7v-13h4.396c3.809 0 4.826-.489 7.607-3.656 3.039-3.462 3.188-4.001 2.798-10.132-.368-5.779-.758-6.784-3.623-9.344-2.927-2.616-3.867-2.868-10.694-2.868H564v19.5m29 0V579h7v-7c0-6.756.085-7 2.442-7 2.143 0 2.719.859 4.697 7l2.255 7h3.803c2.092 0 3.803-.146 3.803-.325 0-.179-1.135-3.663-2.523-7.742-1.56-4.588-2.124-7.551-1.479-7.766 3.385-1.128 5.303-12.754 2.885-17.483-2.376-4.646-4.853-5.638-14.133-5.662L593 540v19.5m94.032-3.25c.033 17.08.197 17.776 4.941 21.046 2.902 2 11.734 2.265 14.073.422 4.51-3.554 4.954-5.52 4.954-21.941V540h-7v14.066c0 7.783-.462 14.929-1.035 16-1.173 2.192-5.864 2.635-7.765.734-.825-.825-1.2-5.822-1.2-16V540h-7l.032 16.25M719 559.5V579h7v-7c0-6.283.201-7 1.958-7 1.558 0 2.382 1.427 4.042 7l2.085 7h3.957c2.177 0 3.951-.112 3.943-.25-.008-.138-1.072-3.651-2.363-7.808l-2.349-7.558 2.364-2.748c1.918-2.23 2.363-3.881 2.363-8.769 0-5.321-.34-6.36-2.923-8.944-2.776-2.776-3.354-2.923-11.5-2.923H719v19.5m30 0V579H770.999l-.25-3.498-.249-3.498-6.75-.002L757 572v-11h10.844l-.244-3.25c-.24-3.197-.332-3.255-5.672-3.542l-5.428-.292.102-3.708.102-3.708 6.648-.296c6.63-.295 6.648-.303 6.648-3.25V540h-21v19.5m29-.063V579h7v-23.394l4.041 8.356c2.31 4.776 4.406 7.967 4.894 7.447.469-.5 2.691-4.509 4.938-8.909l4.085-8 .021 12.25L803 579H810.113l-.307-19.5-.306-19.499-3.024-.001c-2.825 0-3.339.634-7.79 9.593l-4.765 9.593-4.786-9.343c-4.385-8.561-5.051-9.369-7.96-9.656l-3.175-.314v19.564m39.5.063V579H838v-7h-14v-11h11v-7h-11.135l.362-3.75.362-3.75 6.706-.296c6.694-.295 6.705-.3 6.705-3.25V540h-20.5v19.5m28.5 0V579h7l.014-10.25.015-10.25 4.929 10.25c4.659 9.689 5.096 10.25 7.986 10.25H869v-39h-7l-.111 8.75c-.061 4.813-.072 9.875-.025 11.25.048 1.403-.16 1.842-.475 1-.308-.825-2.625-5.888-5.148-11.25-4.211-8.953-4.818-9.75-7.414-9.75H846v19.5m29.187-16.25c.299 3.102.484 3.235 4.063 2.923l3.75-.326V579h7V545.737l4 .536c3.989.535 4 .527 4-2.868V540H874.873l.314 3.25M529 548.927c0 4.251.924 5.074 2.954 2.628 1.662-2.002.913-5.965-1.204-6.368-1.435-.274-1.75.4-1.75 3.74M414 553c0 7 0 7 2.8 7 3.805 0 5.2-1.681 5.2-6.266 0-5.466-1.477-7.734-5.035-7.734H414v7m29 .063v7.064l3.25-.314c2.906-.28 3.338-.737 4.08-4.313 1.215-5.855-.437-9.5-4.305-9.5H443v7.063M571 553v7.127l3.25-.314c2.838-.273 3.368-.792 4.183-4.091 1.393-5.637-.152-9.143-4.201-9.535l-3.232-.314V553m29-1v6h4.393c4.668 0 5.607-.945 5.607-5.648 0-4.549-1.713-6.352-6.035-6.352H600v6m31.557-3.777c-1.798 2.567-2.193 16.973-.582 21.212.79 2.077 1.639 2.565 4.465 2.565 4.731 0 5.56-1.939 5.56-13 0-5.022-.466-10.002-1.035-11.066-1.463-2.734-6.41-2.564-8.408.289M726 552v6h3.893c4.132 0 5.107-1.078 5.107-5.648 0-4.351-1.744-6.352-5.535-6.352H726v6m-200.028 13.052c-2.464 4.604.51 8.797 5.373 7.576 3.349-.84 3.333-1.886-.095-6.181-3.199-4.01-3.794-4.167-5.278-1.395M349.4 623.5c.001 8.25.156 11.492.344 7.204.188-4.287.187-11.037-.002-15-.19-3.962-.343-.454-.342 7.796M196.5 614l-21 .561 20.691.22c12.957.137 20.922-.155 21.309-.781.34-.55.479-.901.309-.781-.17.121-9.759.472-21.309.781"/><path fill="#16334c" fill-rule="evenodd" d="M175.146 362.73c-.52.974-1.946 6.792-3.168 12.929l-2.222 11.159-6.628 1.663c-3.645.915-9.175 3.062-12.288 4.772l-5.659 3.109-10.734-7.784-10.733-7.784-15.937 15.937-15.938 15.937 7.143 11.096 7.142 11.096-1.725 3.32c-.949 1.826-3.215 7.589-5.036 12.807l-3.311 9.487-11.712 1.755c-6.521.978-12.067 2.313-12.511 3.013-1.079 1.7-1.023 41.904.061 43.614.974 1.538 6.178 2.643 17.197 3.653l7.587.695 1.314 5.127c1.502 5.859 6.494 18.34 8.119 20.298 1.324 1.595-.633 5.006-8.598 14.984-3.024 3.788-5.5 7.521-5.503 8.297-.008 1.992 30.025 31.09 32.089 31.09.936 0 6.062-3.214 11.391-7.143l9.69-7.143 3.662 1.768C153.847 582.9 165.96 587 168.096 587c1.899 0 1.966.226 4.409 14.747.856 5.086 1.815 9.923 2.132 10.75.488 1.271 3.808 1.503 21.521 1.503h20.944l1.32-3.25c.725-1.788 2.1-7.67 3.054-13.072.954-5.402 2.25-9.965 2.879-10.14 4.76-1.322 14.09-4.728 18.769-6.85l5.623-2.551 8.189 6.928c9.517 8.052 11.841 8.953 15.772 6.117C278.4 587.077 301 563.293 301 561.408c0-1.056-3.15-6.063-7-11.127-3.85-5.064-7-9.687-7-10.273 0-.586 1.312-3.663 2.915-6.839 1.603-3.175 3.682-8.45 4.62-11.721.939-3.272 2.104-6.446 2.589-7.055.486-.608 4.018-1.398 7.85-1.754 3.832-.356 9.216-1.13 11.966-1.719 4.511-.968 5.056-1.382 5.593-4.246.713-3.808.2-41.281-.577-42.053-.299-.298-6.026-1.311-12.726-2.252l-12.182-1.709-1.631-5.08c-.897-2.794-3.203-8.805-5.125-13.357l-3.495-8.277 7.102-9.448c3.905-5.196 7.101-10.027 7.101-10.735C301 411.88 270.766 382 268.861 382c-.889 0-4.82 2.684-8.736 5.964-10.256 8.589-10.258 8.59-16.412 5.688-2.867-1.351-8.469-3.443-12.45-4.648-8.226-2.49-7.752-1.686-11.185-19.004l-1.685-8.5-21.151-.27c-19.372-.247-21.23-.121-22.096 1.5M372.5 396.637c-7.711 1.183-12.5 3.569-16.826 8.381-6.954 7.734-7.174 9.281-7.174 50.482 0 31.772.206 36.591 1.758 41.032 3.906 11.182 13.101 17.472 26.688 18.259 11.135.644 17.877-1.519 24.085-7.727 5.841-5.84 7.969-12.006 7.969-23.082v-7.655l-9.25.092-9.25.092-.5 7.834c-.449 7.038-.785 8.078-3.306 10.244-4.274 3.673-11.831 3.427-15.771-.512L368 491.154v-34.627c0-37.562.18-38.921 5.472-41.332 4.856-2.213 10.364-1.513 13.605 1.728 3.042 3.042 3.437 5.087 2.96 15.327l-.221 4.75h19.446l-.474-10.25c-.735-15.889-4.686-23.165-15.07-27.757-4.772-2.11-15.244-3.273-21.218-2.356m68.127 1.831c-9.263 3.302-14.772 10.918-16.655 23.025-1.242 7.981-1.131 56.273.154 67.007 2.194 18.338 14.3 27.668 34.063 26.254 12.667-.906 21.714-7.466 25.263-18.318 1.426-4.359 1.601-9.96 1.344-42.974-.286-36.721-.367-38.093-2.458-41.962-2.874-5.316-7.829-9.931-13.338-12.421-5.491-2.483-22.117-2.841-28.373-.611m137.367-.534c-4.779 1.454-8.713 3.982-11.971 7.692-6.588 7.504-6.523 7.027-6.523 47.874 0 32.928.196 37.562 1.784 42.109 2.423 6.942 7.625 12.71 14.491 16.069 5.055 2.473 6.832 2.799 15.224 2.787 7.764-.01 10.333-.419 14.056-2.233 6.238-3.042 10.772-7.701 13.852-14.232l2.593-5.5V455c0-37.406-.006-37.513-2.392-42.794-2.942-6.512-8.866-11.76-15.496-13.729-5.231-1.553-21.185-1.891-25.618-.543m58.77 57.316L636.5 513l9.5.001 9.5.001-.286-23.001-.286-23.001h10.835l1.171 4.75c.644 2.613 3.457 12.936 6.251 22.94l5.08 18.19 10.869.31c5.979.171 10.869.252 10.868.182-.001-.071-3.842-11.294-8.536-24.942-7.85-22.823-8.391-24.889-6.75-25.769.981-.527 3.627-2.851 5.879-5.165 4.989-5.126 6.405-10.047 6.405-22.255 0-15.52-2.653-24.824-8.658-30.362-6.83-6.298-7.005-6.338-30.029-6.879l-21.285-.5-.264 57.75m154.681-57.365c-.21.212-.403 26.2-.429 57.75L790.97 513l20.265-.022c17.538-.019 20.812-.27 24.33-1.868 5.536-2.515 11.107-7.587 13.744-12.515 2.149-4.016 2.191-4.859 2.191-43.595 0-38.817-.038-39.571-2.206-43.624-1.214-2.269-3.689-5.374-5.5-6.902-6.503-5.483-8.677-5.935-31.13-6.474-11.46-.275-21.009-.327-21.219-.115m91.694 1.279c-2.949 1.132-7.087 3.784-9.195 5.892-6.587 6.587-6.944 9.189-6.944 50.588 0 33.793.137 36.646 1.994 41.609 2.389 6.386 7.66 11.808 14.506 14.923 4.069 1.851 6.769 2.278 14.5 2.289 8.158.012 10.277-.352 15-2.577 6.318-2.976 10.287-6.655 13.351-12.375 2.07-3.865 2.16-5.377 2.456-40.896.288-34.586.182-37.295-1.703-43.501-2.312-7.611-6.836-12.756-14.104-16.039-6.388-2.886-22.243-2.84-29.861.087m-382.14 56.586v57.75l25-.283 25.001-.284V495h-31v-97h-19l-.001 57.75m230.5-55.5C730.928 402.633 709 512.253 709 512.724c0 .152 4.226.276 9.392.276 10.827 0 9.37 1.762 12.2-14.75l1.756-10.25h23.271l1.94 12.25 1.941 12.25 10.69.283 10.689.283-.949-3.283c-.523-1.806-5.669-26.683-11.435-55.283-5.767-28.6-10.721-53.012-11.009-54.25-.509-2.185-.884-2.25-12.986-2.25-12.097 0-12.478.066-13.001 2.25m-579.38 52.092-42.381 42.428.695 4.635c.476 3.174 1.069 4.414 1.881 3.935.652-.384 9.18-6.757 18.951-14.163l17.765-13.465 5.043 4.252c2.774 2.339 5.193 4.092 5.376 3.895.436-.47 6.016-8.698 23.497-34.645 7.887-11.707 14.646-21.157 15.02-21 .374.157 10.539 11.199 22.588 24.536 12.05 13.337 22.142 24.237 22.427 24.221.286-.017 2.143-2.272 4.128-5.011l3.609-4.982 13.806 16.261c7.593 8.944 14.59 17.106 15.548 18.14 1.673 1.805 1.769 1.618 2.448-4.722l.707-6.6-11.621-15.778c-6.391-8.679-12.68-17.105-13.976-18.726l-2.357-2.948-6.761 4.239c-3.718 2.332-7.066 4.108-7.438 3.948-.373-.161-8.079-8.612-17.126-18.781-9.046-10.168-19.373-21.55-22.948-25.293l-6.5-6.805-42.381 42.429m295.707-36.63c-1.471.913-3.158 2.722-3.75 4.021-.702 1.539-1.076 14.375-1.076 36.891v34.53l2.923 2.923c2.37 2.37 3.78 2.923 7.453 2.923 6.023 0 9.202-1.59 11.076-5.54 1.3-2.74 1.547-8.524 1.544-36.111-.003-31.067-.112-33.027-2-36.124-3.192-5.235-10.748-6.877-16.17-3.513m136.578-.34c-5.883 2.664-6.407 5.9-6.38 39.398.013 16.352.431 31.485.929 33.631 1.236 5.329 3.924 7.718 9.375 8.333 6.437.725 9.439-.304 11.699-4.011 1.853-3.038 1.966-5.189 1.969-37.457l.004-34.234-2.782-3.115c-3.306-3.699-9.802-4.816-14.814-2.545m308.096-.427c-1.1.451-2.9 1.819-4 3.041-1.903 2.114-2.014 3.85-2.292 35.868-.161 18.505-.03 34.697.29 35.981.321 1.285 1.755 3.422 3.188 4.75 2.09 1.937 3.681 2.415 8.037 2.415 4.632 0 5.848-.417 8.268-2.837 3.92-3.92 4.191-6.879 3.825-41.663-.343-32.599-.619-34.312-5.961-37.075-3.004-1.553-8.196-1.773-11.355-.48M655 432.5V450h8.077c7.533 0 8.267-.191 10.907-2.83 3.316-3.316 4.679-10.871 3.607-19.993-1.171-9.96-4.021-12.177-15.656-12.177H655v17.5m156 23.106v40.606l8.092-.368c7.611-.345 8.261-.555 10.912-3.522 3.78-4.231 4.243-9.349 3.829-42.322-.246-19.534-.678-27.105-1.647-28.804-2.389-4.188-7.052-6.188-14.436-6.192L811 415v40.606M743.67 425c-.514 1.978-6.285 34.169-8.023 44.75-.36 2.194-.145 2.25 8.6 2.25 8.792 0 8.959-.045 8.44-2.25-.291-1.238-2.157-11.7-4.146-23.25-1.989-11.55-3.753-21.675-3.919-22.5-.175-.872-.574-.453-.952 1M168.195 546.702c-19.776 9.451-24.062 11.853-23 12.886 2.583 2.514 16.447 9.284 23.305 11.381 10.042 3.07 32.183 4.776 42.494 3.273 18.996-2.769 41.045-16.207 54.322-33.111l4.817-6.131-38.817.043-38.816.044-24.305 11.615m181.778 60.548c-.014.138-.127 7.338-.25 16L349.5 639H369v-6h-13v-26h-3c-1.65 0-3.012.112-3.027.25M376 623v16h20v-6h-14v-26h-6v16m32.962-13.75c-4.894 2.468-8.962 8.823-8.962 14.002 0 3.972 3.403 10.187 6.968 12.725 5.496 3.914 14.087 3.914 19.032.001l2.5-1.978-2.458-1.911c-2.164-1.683-2.699-1.742-4.472-.5-4.511 3.159-11.581 1.014-14.091-4.274-2.109-4.445-1.179-8.548 2.671-11.788 3.454-2.907 7.39-3.238 10.725-.902 2.174 1.523 2.447 1.498 4.344-.399 2.415-2.416 1.934-3.451-2.604-5.604-4.653-2.209-8.367-2.038-13.653.628"/></svg>